<svg xmlns="http://www.w3.org/2000/svg" version="1.1" xmlns:xlink="http://www.w3.org/1999/xlink" width="512" height="512" x="0" y="0" viewBox="0 0 28 28" style="enable-background:new 0 0 512 512" xml:space="preserve" class=""><g><switch><g><path fill="#ff6b00" d="M11 26c-.5 0-1-.5-1-1v-5l-7.4-3.1c-.3-.1-.6-.5-.6-.8s.2-.7.5-.9l22-13c.3-.2.7-.2 1.1 0 .3.2.5.6.4 1l-3 21c0 .3-.2.6-.5.7-.3.2-.6.2-.9.1l-6.4-2.7-3.5 3.5c-.2.1-.4.2-.7.2zm1-5.1v1.7l1.2-1.2zm-.9-2.6 10.1 4.3 2.5-17.7L5.2 15.8l3.9 1.6 6.2-6.2c.4-.4 1-.4 1.4 0s.4 1 0 1.4z" opacity="1" data-original="#1e4777"></path></g></switch></g></svg>