<svg id="Layer_1" enable-background="new 0 0 512 512" viewBox="0 0 512 512" xmlns="http://www.w3.org/2000/svg"><path d="m422.4 293.47-83.28 55.13c-4.22-10.1-13.22-17.87-24.47-20.16l-137.9-28.03c-12.46-2.54-24.35-.6-35.29 5.75l-42.02 24.25-8.48-14.69c-2.46-4.3-6.47-7.38-11.28-8.67s-9.83-.64-14.11 1.84l-33.62 19.41c-8.87 5.09-11.93 16.46-6.82 25.38l86.06 149.05c2.48 4.29 6.49 7.35 11.29 8.63 1.6.43 3.22.64 4.83.64 3.22 0 6.4-.84 9.25-2.5l33.63-19.39c8.88-5.14 11.93-16.54 6.8-25.4l-8.49-14.71 9.51-5.49c9.54-5.5 19.58-6.25 29.85-2.23l48.31 18.97c6.21 2.43 12.51 3.64 18.74 3.64 9.77 0 19.33-2.97 28-8.83l156.83-106.17c15.55-10.31 19.83-31.34 9.53-46.88-10.31-15.56-31.33-19.84-46.87-9.54zm-260.2 182.8-33.63 19.39c-.8.46-1.57.36-1.96.25-.39-.1-1.11-.4-1.57-1.19l-86.05-149.01c-.71-1.23-.28-2.86.92-3.55.01 0 .02-.01.02-.01l33.62-19.42c.45-.26.89-.34 1.26-.34.29 0 .53.05.7.09.39.11 1.11.4 1.57 1.21l73.48 127.24c.03.05.05.1.08.15s.06.09.09.14l12.41 21.49c.72 1.22.28 2.85-.94 3.56zm288.64-139.67-156.89 106.21c-9.85 6.65-20.9 7.88-31.95 3.55l-48.31-18.97c-14.81-5.8-29.91-4.67-43.68 3.27l-9.51 5.49-53.08-91.9 42.03-24.25c7.58-4.4 15.47-5.69 24.1-3.93l137.9 28.03c8.33 1.7 14.33 9.1 14.27 17.59 0 .08.01.15.01.23-.02.19-.04.38-.04.57-.02.81-.12 1.69-.32 2.65-.95 4.64-3.66 8.65-7.65 11.29-3.98 2.64-8.73 3.57-13.37 2.63l-93.17-18.94c-4.33-.87-8.55 1.92-9.43 6.24s1.92 8.55 6.24 9.43l93.17 18.93c2.25.46 4.52.69 6.77.69 6.56 0 13-1.93 18.62-5.65 7.54-5 12.69-12.61 14.48-21.39.15-.71.26-1.41.36-2.12l89.83-59.47c8.19-5.43 19.28-3.17 24.72 5.04 5.44 8.2 3.18 19.3-5.1 24.78zm-147.68-250.6c12.38 0 22.45-10.07 22.45-22.45s-10.07-22.45-22.45-22.45c-12.39 0-22.48 10.07-22.48 22.45s10.09 22.45 22.48 22.45zm0-28.91c3.56 0 6.46 2.9 6.46 6.46s-2.9 6.46-6.46 6.46c-3.58 0-6.49-2.9-6.49-6.46s2.91-6.46 6.49-6.46zm176.26-1.25-9.53-3.09 4.54-8.91c2.85-5.57 1.79-12.27-2.64-16.7l-9.6-9.57c-4.41-4.41-11.1-5.48-16.68-2.66l-8.9 4.53-3.09-9.52c-1.95-5.94-7.44-9.92-13.66-9.92h-13.58c-6.21 0-11.7 3.98-13.67 9.95l-3.08 9.49-8.92-4.54c-5.57-2.81-12.27-1.74-16.69 2.67l-9.58 9.58c-.43.43-.83.9-1.2 1.37l-42.67-21c-4.72-2.33-9.93-2.34-14.64-.01l-120.23 59.18c-5.71 2.8-9.26 8.5-9.26 14.86v28.91c0 5.99 4.87 10.86 10.86 10.86h17.52v103.43h-9.69c-10.3 0-18.68 8.39-18.68 18.71v25.82c0 7.58 6.17 13.75 13.75 13.75h246.13c7.58 0 13.75-6.17 13.75-13.75v-25.82c0-10.32-8.38-18.71-18.68-18.71h-9.69v-72.2h8.28c6.22 0 11.71-3.97 13.67-9.92l3.08-9.51 8.92 4.54c5.57 2.81 12.26 1.75 16.66-2.64l9.61-9.61c4.42-4.42 5.47-11.13 2.63-16.68l-4.53-8.9 9.55-3.1c5.91-1.95 9.88-7.44 9.88-13.66v-13.57c-.02-6.22-3.99-11.7-9.94-13.66zm-297.1 25.71c0-.29.05-.38.33-.51l120.25-59.19c.23-.11.25-.12.5.01l49.5 24.36 3.34 6.53-9.55 3.1c-5.91 1.95-9.89 7.44-9.89 13.66v13.58c0 6.22 3.97 11.71 9.92 13.67l9.5 3.08-2.81 5.5h-171.1v-23.79zm147.37 143.21v-103.44h21.78c.7 1.49 1.65 2.87 2.86 4.08l4.16 4.17v95.18h-28.8zm-37.1 0v-103.44h21.12v103.43h-21.12zm-44.79 0v-103.44h28.8v103.43h-28.8zm-37.1-103.44h21.12v103.43h-21.12zm213.27 122.15v23.58h-241.65v-23.58c0-1.48 1.23-2.72 2.69-2.72h236.27c1.46 0 2.69 1.24 2.69 2.72zm-49.49-18.71v-85.54c2.09-.06 4.19-.56 6.15-1.56l8.9-4.53 3.1 9.55c.64 1.94 1.67 3.67 2.97 5.12v76.96zm98.87-142.85-13.55 4.39c-2.37.77-4.25 2.6-5.08 4.96-.46 1.31-.99 2.58-1.62 3.88-1.08 2.25-1.05 4.87.08 7.1l6.47 12.71-7.93 7.93-12.71-6.47c-2.22-1.13-4.85-1.16-7.1-.08-1.3.63-2.57 1.16-3.88 1.61-2.35.83-4.19 2.7-4.96 5.08l-4.39 13.55h-11.24l-4.39-13.55c-.77-2.37-2.6-4.25-4.96-5.08-1.31-.46-2.58-.99-3.88-1.61-2.25-1.08-4.87-1.05-7.1.08l-12.72 6.48-7.93-7.96 6.48-12.68c1.14-2.23 1.17-4.86.08-7.11-.63-1.3-1.15-2.57-1.62-3.88-.83-2.35-2.7-4.19-5.08-4.96l-13.55-4.39v-11.23l13.55-4.4c2.37-.77 4.25-2.6 5.08-4.96.45-1.3.99-2.59 1.64-3.96 1.06-2.24 1.02-4.85-.11-7.06l-6.48-12.68 7.95-7.95 12.71 6.47c2.19 1.11 4.76 1.16 6.99.13 1.38-.64 2.72-1.2 4.11-1.71 2.3-.85 4.08-2.7 4.84-5.03l4.4-13.55h11.22l4.4 13.55c.76 2.33 2.54 4.18 4.84 5.03 1.39.51 2.73 1.07 4.11 1.71 2.23 1.03 4.8.98 6.99-.13l12.69-6.46 7.95 7.92-6.47 12.7c-1.12 2.21-1.16 4.81-.1 7.05.65 1.37 1.19 2.67 1.64 3.96.83 2.35 2.7 4.19 5.08 4.96l13.55 4.4zm-60.29-42.14c-20.13 0-36.51 16.38-36.51 36.51 0 20.15 16.38 36.54 36.51 36.54 20.15 0 36.54-16.39 36.54-36.54 0-20.13-16.39-36.51-36.54-36.51zm0 57.06c-11.32 0-20.52-9.22-20.52-20.55 0-11.32 9.21-20.52 20.52-20.52 11.33 0 20.55 9.21 20.55 20.52 0 11.33-9.22 20.55-20.55 20.55z"/></svg>