<?xml version="1.0" encoding="UTF-8" standalone="no"?>
<!-- Created with Inkscape (http://www.inkscape.org/) -->

<svg
   version="1.1"
   id="svg987"
   xml:space="preserve"
   width="682.66669"
   height="682.66669"
   viewBox="0 0 682.66669 682.66669"
   xmlns="http://www.w3.org/2000/svg"
   xmlns:svg="http://www.w3.org/2000/svg"><defs
     id="defs991"><clipPath
       clipPathUnits="userSpaceOnUse"
       id="clipPath1013"><path
         d="M 0,512 H 512 V 0 H 0 Z"
         id="path1011" /></clipPath></defs><g
     id="g993"
     transform="matrix(1.3333333,0,0,-1.3333333,0,682.66667)"><g
       id="g995"
       transform="translate(405.478,467.248)"><path
         d="M 0,0 H 65.441"
         style="fill:none;stroke:#000000;stroke-width:15;stroke-linecap:round;stroke-linejoin:round;stroke-miterlimit:10;stroke-dasharray:none;stroke-opacity:1"
         id="path997" /></g><g
       id="g999"
       transform="translate(368.3159,467.248)"><path
         d="M 0,0 H 7.977"
         style="fill:none;stroke:#000000;stroke-width:15;stroke-linecap:round;stroke-linejoin:round;stroke-miterlimit:10;stroke-dasharray:none;stroke-opacity:1"
         id="path1001" /></g><g
       id="g1003"
       transform="translate(368.3159,432.0161)"><path
         d="M 0,0 H 102.604"
         style="fill:none;stroke:#000000;stroke-width:15;stroke-linecap:round;stroke-linejoin:round;stroke-miterlimit:10;stroke-dasharray:none;stroke-opacity:1"
         id="path1005" /></g><g
       id="g1007"><g
         id="g1009"
         clip-path="url(#clipPath1013)"><g
           id="g1015"
           transform="translate(315.6665,331.3335)"><path
             d="m 0,0 v -30.687 c 0,-12.675 -10.275,-22.95 -22.951,-22.95 h -18.918"
             style="fill:none;stroke:#000000;stroke-width:15;stroke-linecap:round;stroke-linejoin:round;stroke-miterlimit:10;stroke-dasharray:none;stroke-opacity:1"
             id="path1017" /></g><g
           id="g1019"
           transform="translate(377.8174,40.0659)"><path
             d="m 0,0 h -354.19 c -8.907,0 -16.127,-7.22 -16.127,-16.127 0,-8.906 7.22,-16.126 16.127,-16.126 H 0 c 8.907,0 16.127,7.22 16.127,16.126 C 16.127,-7.22 8.907,0 0,0 Z"
             style="fill:none;stroke:#000000;stroke-width:15;stroke-linecap:round;stroke-linejoin:round;stroke-miterlimit:10;stroke-dasharray:none;stroke-opacity:1"
             id="path1021" /></g><g
           id="g1023"
           transform="translate(220.8452,40.0659)"><path
             d="m 0,0 c 0,13.216 4.952,25.922 13.794,35.744 0.066,0.073 0.132,0.147 0.198,0.221 7.231,8.09 11.628,18.766 11.628,30.471 0,17.057 -9.337,31.933 -23.179,39.797 -2.626,1.493 -5.887,-0.384 -5.887,-3.404 V 68.798 c 0,-5.704 -4.624,-10.328 -10.329,-10.328 h -12.696 c -5.704,0 -10.329,4.624 -10.329,10.328 v 34.031 c 0,3.02 -3.262,4.897 -5.888,3.404 -13.841,-7.864 -23.178,-22.74 -23.178,-39.797 0,-11.705 4.397,-22.381 11.628,-30.471 0.066,-0.074 0.132,-0.148 0.198,-0.221 C -45.198,25.922 -40.246,13.216 -40.246,0"
             style="fill:none;stroke:#000000;stroke-width:15;stroke-linecap:round;stroke-linejoin:round;stroke-miterlimit:10;stroke-dasharray:none;stroke-opacity:1"
             id="path1025" /></g><g
           id="g1027"
           transform="translate(46.1646,69.333)"><path
             d="M 0,0 1.588,-29.267"
             style="fill:none;stroke:#000000;stroke-width:15;stroke-linecap:round;stroke-linejoin:round;stroke-miterlimit:10;stroke-dasharray:none;stroke-opacity:1"
             id="path1029" /></g><g
           id="g1031"
           transform="translate(353.6914,40.0659)"><path
             d="m 0,0 7.433,136.942 c 0.715,13.186 -9.783,24.27 -22.989,24.27 h -274.827 c -13.205,0 -23.704,-11.084 -22.988,-24.27 l 3.954,-72.866"
             style="fill:none;stroke:#000000;stroke-width:15;stroke-linecap:round;stroke-linejoin:round;stroke-miterlimit:10;stroke-dasharray:none;stroke-opacity:1"
             id="path1033" /></g><g
           id="g1035"
           transform="translate(387.9434,36.4824)"><path
             d="m 0,0 v 31.417 c 0,30.26 -10.514,58.433 -28.362,80.688"
             style="fill:none;stroke:#000000;stroke-width:15;stroke-linecap:round;stroke-linejoin:round;stroke-miterlimit:10;stroke-dasharray:none;stroke-opacity:1"
             id="path1037" /></g><g
           id="g1039"
           transform="translate(41.8628,148.5879)"><path
             d="m 0,0 c -17.848,-22.255 -28.362,-50.428 -28.362,-80.688 v -31.417"
             style="fill:none;stroke:#000000;stroke-width:15;stroke-linecap:round;stroke-linejoin:round;stroke-miterlimit:10;stroke-dasharray:none;stroke-opacity:1"
             id="path1041" /></g><g
           id="g1043"
           transform="translate(277.0737,442.6733)"><path
             d="m 0,0 h -0.841 c -4.655,0 -8.429,3.773 -8.429,8.428 0,13.783 -11.172,24.956 -24.955,24.956 h -79.429 c -35.349,0 -64.004,-28.655 -64.004,-64.004 v -42.297 c 0,-6.213 3.931,-11.746 9.799,-13.789 l 15.765,-5.489 c 5.511,-1.919 11.266,2.178 11.257,8.013 l -0.035,29.826 c -0.06,14.505 11.507,26.314 25.837,26.376 l 0.312,0.001 c 4.387,0.019 8.725,-0.662 12.869,-1.994 7.342,-2.359 14.95,-3.789 22.662,-3.756 h 5.681 c 7.712,-0.033 15.32,1.397 22.662,3.756 4.144,1.332 8.482,2.013 12.869,1.994 l 0.312,-0.001 c 14.33,-0.062 25.897,-11.871 25.837,-26.376 l -0.029,-29.828 c -0.008,-5.835 5.747,-9.93 11.256,-8.011 l 15.761,5.489 c 5.867,2.043 9.798,7.575 9.798,13.788 v 47.962 C 24.955,-11.173 13.782,0 0,0 Z"
             style="fill:none;stroke:#000000;stroke-width:15;stroke-linecap:round;stroke-linejoin:round;stroke-miterlimit:10;stroke-dasharray:none;stroke-opacity:1"
             id="path1045" /></g><g
           id="g1047"
           transform="translate(118.8691,312.4746)"><path
             d="m 0,0 h 0.14 c 0.552,-21.754 9.672,-42.657 26.049,-56.809 13.186,-11.394 31.694,-21.309 56.089,-21.481 24.392,0.38 42.818,10.453 55.907,21.959 15.937,14.008 24.825,34.443 25.522,55.738"
             style="fill:none;stroke:#000000;stroke-width:15;stroke-linecap:round;stroke-linejoin:round;stroke-miterlimit:10;stroke-dasharray:none;stroke-opacity:1"
             id="path1049" /></g><g
           id="g1051"
           transform="translate(99.4155,373.042)"><path
             d="m 0,0 c -7.757,-1.428 -13.638,-8.212 -13.638,-16.382 v -28.486 c 0,-9.208 7.464,-16.672 16.672,-16.672 h 16.42 v 41.104"
             style="fill:none;stroke:#000000;stroke-width:15;stroke-linecap:round;stroke-linejoin:round;stroke-miterlimit:10;stroke-dasharray:none;stroke-opacity:1"
             id="path1053" /></g><g
           id="g1055"
           transform="translate(282.5757,352.6045)"><path
             d="m 0,0 v -41.102 h 16.419 c 9.208,0 16.672,7.464 16.672,16.671 V 4.055 c 0,8.17 -5.881,14.955 -13.638,16.382"
             style="fill:none;stroke:#000000;stroke-width:15;stroke-linecap:round;stroke-linejoin:round;stroke-miterlimit:10;stroke-dasharray:none;stroke-opacity:1"
             id="path1057" /></g><g
           id="g1059"
           transform="translate(257.3232,265.9238)"><path
             d="m 0,0 h -18.822 c -7.181,0 -13.003,5.821 -13.003,13.002 0,7.182 5.822,13.003 13.003,13.003 H 0 c 7.181,0 13.002,-5.821 13.002,-13.003 C 13.002,5.821 7.181,0 0,0 Z"
             style="fill:none;stroke:#000000;stroke-width:15;stroke-linecap:round;stroke-linejoin:round;stroke-miterlimit:10;stroke-dasharray:none;stroke-opacity:1"
             id="path1061" /></g><g
           id="g1063"
           transform="translate(253.9111,201.2783)"><path
             d="M 0,0 C -6.891,3.736 -11.441,11.002 -11.441,19.185 V 44.326"
             style="fill:none;stroke:#000000;stroke-width:15;stroke-linecap:round;stroke-linejoin:round;stroke-miterlimit:10;stroke-dasharray:none;stroke-opacity:1"
             id="path1065" /></g><g
           id="g1067"
           transform="translate(158.9746,245.6821)"><path
             d="m 0,0 v -25.219 c 0,-8.323 -4.683,-15.498 -11.464,-19.185"
             style="fill:none;stroke:#000000;stroke-width:15;stroke-linecap:round;stroke-linejoin:round;stroke-miterlimit:10;stroke-dasharray:none;stroke-opacity:1"
             id="path1069" /></g><g
           id="g1071"
           transform="translate(504.5,467.8604)"><path
             d="m 0,0 v 14.516 c 0,12.046 -9.765,21.811 -21.812,21.811 h -126.141 c -12.047,0 -21.812,-9.765 -21.812,-21.811 v -63.088 c 0,-12.046 9.765,-21.811 21.812,-21.811 7.035,0 12.738,-5.703 12.738,-12.738 v -39.015 c 0,-4.953 6.523,-6.759 9.07,-2.511 l 28.831,48.077 c 2.301,3.838 6.449,6.187 10.924,6.187 h 64.578 C -9.765,-70.383 0,-60.618 0,-48.572 v 13.508"
             style="fill:none;stroke:#000000;stroke-width:15;stroke-linecap:round;stroke-linejoin:round;stroke-miterlimit:10;stroke-dasharray:none;stroke-opacity:1"
             id="path1073" /></g></g></g></g></svg>
