<svg id="Layer_1" enable-background="new 0 0 64 64" height="512" viewBox="0 0 64 64" width="512" xmlns="http://www.w3.org/2000/svg"><g><g id="ARC_10_"><g><path d="m52.952 15.401c-.285 0-.567-.12-.765-.354-.356-.422-.304-1.053.118-1.409 1.618-1.366 2.781-3.166 3.363-5.203.153-.532.71-.831 1.236-.688.531.152.839.706.688 1.236-.692 2.421-2.074 4.559-3.996 6.182-.188.159-.416.236-.644.236z"/></g></g><g id="LWPOLYLINE_6_"><g><path d="m34.234 27.866c-.335 0-.662-.168-.852-.474-.29-.47-.146-1.086.324-1.377 5.779-3.58 11.886-7.646 18.668-12.432.451-.317 1.074-.21 1.394.241.318.451.21 1.075-.241 1.394-6.814 4.809-12.953 8.896-18.768 12.498-.163.102-.345.15-.525.15z"/></g></g><g id="LINE_76_"><g><path d="m49.171 30.324c-.285 0-.568-.121-.766-.356-.356-.422-.302-1.053.121-1.408l2.256-1.898c.423-.358 1.054-.302 1.408.121.356.422.302 1.053-.121 1.408l-2.256 1.898c-.187.158-.416.235-.642.235z"/></g></g><g id="LINE_77_"><g><path d="m49.169 30.324c-.445 0-.851-.299-.968-.75l-2.675-10.367c-.138-.535.185-1.08.719-1.219.535-.136 1.08.184 1.219.719l2.675 10.367c.138.535-.185 1.08-.719 1.219-.084.021-.168.031-.251.031z"/></g></g><g id="LINE_78_"><g><path d="m51.426 28.426c-.547 0-.993-.439-1-.986l-.156-11.838c-.007-.553.435-1.006.986-1.014h.014c.547 0 .993.439 1 .986l.156 11.838c.007.553-.435 1.006-.986 1.014-.005 0-.01 0-.014 0z"/></g></g><g id="LINE_79_"><g><path d="m36.108 32.427c-.477 0-.899-.342-.984-.828l-.903-5.163c-.095-.544.269-1.062.813-1.157.542-.092 1.063.27 1.157.813l.903 5.163c.095.544-.269 1.062-.813 1.157-.057.01-.116.015-.173.015z"/></g></g><g id="LINE_80_"><g><path d="m37.771 31.285c-.078 0-.156-.009-.235-.027-.536-.13-.867-.67-.738-1.207l1.587-6.594c.129-.536.667-.864 1.207-.738.536.13.867.67.738 1.207l-1.587 6.594c-.111.458-.521.765-.972.765z"/></g></g><g id="LINE_81_"><g><path d="m36.11 32.427c-.318 0-.631-.151-.825-.434-.313-.455-.197-1.077.258-1.391l1.66-1.142c.455-.313 1.077-.196 1.391.258.313.455.197 1.077-.258 1.391l-1.66 1.142c-.173.119-.37.176-.566.176z"/></g></g><g id="LINE_82_"><g><path d="m19.205 50.118c-.151 0-.306-.034-.45-.107-.493-.249-.69-.851-.441-1.344l1.702-3.367c.248-.493.85-.692 1.344-.441.493.249.69.851.441 1.344l-1.702 3.367c-.176.348-.529.548-.894.548z"/></g></g><g id="LWPOLYLINE_7_"><g><path d="m20.908 46.751c-.542 0-.987-.433-1-.977-.013-.552.425-1.01.977-1.023l1.423-.033.737-.552c.13-.098.282-.162.443-.188l1.424-.226 2.18-1c.056-.025.112-.045.171-.061l1.762-.446 1.546-1.371.246-.608c-.586-.521-1.177-1.037-1.771-1.55-.393-.339-.461-.922-.157-1.343l.423-.585-.026-.935-.701-1.376-.845-1.325c-.296-.467-.157-1.084.31-1.38.468-.296 1.085-.157 1.38.31l.891 1.406.85 1.657c.067.132.104.277.109.426l.043 1.499c.006.22-.061.436-.189.614l-.086.118c.547.478 1.091.957 1.632 1.442.313.282.416.729.258 1.12l-.599 1.478c-.058.143-.148.27-.264.372l-1.903 1.688c-.119.106-.263.182-.417.222l-1.909.484-2.222 1.019c-.083.038-.171.064-.261.078l-1.314.209-.795.595c-.167.125-.368.195-.576.2l-1.743.041c-.011.001-.019.001-.027.001z"/></g></g><g id="LWPOLYLINE_8_"><g><path d="m29.103 52.425c-5.095 0-10.17-1.688-14.196-4.875l-.335-.267c-.433-.343-.506-.972-.162-1.404.343-.433.973-.507 1.404-.162l.335.266c5.31 4.203 12.627 5.55 19.097 3.507 7.256-2.288 12.805-8.615 14.138-16.12.097-.543.61-.905 1.159-.81.544.097.906.615.81 1.159-1.461 8.229-7.547 15.169-15.505 17.679-2.191.69-4.471 1.027-6.745 1.027z"/></g></g><g id="ARC_11_"><g><path d="m12.33 44.647c-.287 0-.571-.122-.769-.359-6.07-7.28-6.97-17.679-2.238-25.875 4.111-7.122 11.784-11.459 19.989-11.365.553.008.994.462.986 1.014-.008.553-.488.994-1.014.986-.09-.001-.181-.002-.271-.002-7.284 0-14.311 4.047-17.959 10.367-4.247 7.356-3.407 17.059 2.041 23.594.354.425.297 1.055-.127 1.408-.186.156-.412.232-.638.232z"/></g></g><g id="LINE_83_"><g><path d="m33.548 25.469c-.114 0-.23-.02-.345-.062l-4.694-1.722c-.519-.189-.784-.765-.594-1.283.189-.518.763-.786 1.283-.594l4.694 1.722c.519.189.784.765.594 1.283-.148.405-.531.656-.938.656z"/></g></g><g id="ARC_12_"><g><path d="m33.684 28.028c-.577 0-1.145-.254-1.56-.737-.679-.791-.689-1.89-.023-2.67.357-.422.989-.472 1.409-.112.421.357.471.989.112 1.409-.012.014-.015.021-.015.021.004.021.055.081.087.089.47-.291 1.093-.151 1.383.318.291.47.151 1.08-.318 1.37-.338.21-.709.312-1.075.312z"/></g></g><g id="LWPOLYLINE_9_"><g><path d="m32.861 26.27c-.229 0-.46-.078-.648-.238-.42-.358-.471-.989-.113-1.41 4.774-5.609 10.133-10.771 15.313-15.763l.478-.46c.397-.384 1.029-.372 1.414.025.384.398.372 1.031-.025 1.414l-.479.461c-5.146 4.958-10.468 10.085-15.178 15.619-.198.232-.479.352-.762.352z"/></g></g><g id="LWPOLYLINE_10_"><g><path d="m33.345 22.138c-.369 0-.725-.205-.898-.559l-1.007-2.047-.637-1.024c-.189-.308-.198-.693-.022-1.01l.666-1.2c.162-.292.459-.484.793-.512l1.487-.121.154-.112-.119-.282c-.303.104-.638.056-.899-.129l-1.571-1.106-.459.086c-.31.059-.633-.033-.865-.249l-.721-.668c-.118-.109-.208-.246-.263-.397l-.359-1.009-1.339-1.119-1.548-.222c-.482-.069-.845-.477-.857-.964l-.031-1.19c-.014-.552.422-1.012.974-1.026.508.001 1.012.421 1.026.974l.009.347.993.143c.184.026.356.104.498.223l1.767 1.476c.138.114.241.264.302.432l.368 1.035.171.158.38-.071c.267-.052.54.009.762.165l1.489 1.05.385-.141c.5-.184 1.058.06 1.265.552l.796 1.891c.18.428.042.924-.334 1.197l-1.023.743c-.148.107-.323.172-.507.188l-1.232.101-.123.221.376.609 1.053 2.13c.243.495.039 1.095-.456 1.339-.145.064-.296.098-.444.098z"/></g></g><g id="LINE_84_"><g><path d="m30.271 22.315c-.525 0-.967-.41-.997-.942-.032-.551.389-1.024.94-1.056l6.483-.376c.539-.03 1.024.389 1.056.94s-.389 1.024-.94 1.056l-6.483.376c-.02.001-.04.002-.059.002z"/></g></g><g id="LINE_85_"><g><path d="m28.854 23.747c-.254 0-.509-.097-.704-.289-.392-.389-.396-1.022-.007-1.415l1.418-1.432c.39-.392 1.021-.395 1.415-.007.392.389.396 1.022.007 1.415l-1.418 1.432c-.197.197-.454.296-.711.296z"/></g></g><g id="LWPOLYLINE_11_"><g><path d="m41.123 48.75c-.067 0-.136-.007-.204-.021-.541-.112-.889-.642-.776-1.183l.28-1.352c.014-.063.033-.125.058-.186l.501-1.188-.17-.937-.675-.643-1.214-.271c-.329-.073-.6-.309-.718-.625l-.571-1.524c-.046-.122-.067-.252-.063-.382l.058-1.829c.009-.298.15-.575.385-.758l1.674-1.303 1.326-1.41c.158-.169.37-.277.599-.307l1.216-.159.357-.396c.223-.248.556-.367.887-.319l1.662.243c.252.037.48.168.639.368l.803 1.012.82.679c.104.085.189.19.251.31l.669 1.289c.057.109.093.228.106.349l.174 1.543c.062.549-.333 1.044-.882 1.106-.558.052-1.045-.333-1.106-.882l-.152-1.359-.49-.943-.744-.616c-.055-.044-.104-.095-.146-.149l-.622-.784-.741-.108-.246.273c-.159.177-.376.291-.612.321l-1.227.161-1.135 1.206c-.035.038-.073.073-.114.104l-1.365 1.063-.036 1.162.312.833.956.214c.177.039.339.126.471.251l1.112 1.058c.153.146.257.338.295.546l.281 1.551c.034.191.013.388-.063.567l-.579 1.373-.26 1.256c-.101.472-.517.796-.981.796z"/></g></g><g id="ARC_13_"><g><path d="m56.632 9.709c-.091 0-.184-.012-.274-.038-.531-.151-.84-.704-.688-1.235.085-.299-.069-.528-.14-.613s-.26-.274-.57-.249c-.54.051-1.036-.356-1.086-.906s.356-1.036.906-1.086c.861-.075 1.724.281 2.29.965.567.685.763 1.596.523 2.437-.125.439-.527.725-.961.725z"/></g></g><g id="ARC_14_"><g><path d="m48.586 10.118c-.292 0-.581-.127-.778-.371-.348-.43-.281-1.06.148-1.406 1.958-1.583 4.317-2.537 6.825-2.76.543-.048 1.036.358 1.084.908.049.55-.357 1.035-.908 1.084-2.109.188-4.096.99-5.743 2.322-.186.15-.407.223-.628.223z"/></g></g><g id="LINE_86_"><g><path d="m47.104 11.546c-.066 0-.135-.007-.202-.021l-11.596-2.383c-.541-.111-.89-.64-.778-1.181s.641-.89 1.181-.778l11.597 2.384c.541.111.89.64.778 1.181-.099.473-.515.798-.98.798z"/></g></g><g id="LINE_87_"><g><path d="m42.894 15.601c-.144 0-.289-.03-.427-.096l-9.677-4.581c-.499-.236-.713-.833-.477-1.332s.835-.714 1.332-.477l9.677 4.581c.499.236.713.833.477 1.332-.171.362-.53.573-.905.573z"/></g></g><g id="LINE_88_"><g><path d="m33.219 11.02c-.291 0-.58-.126-.777-.37-.348-.429-.282-1.059.146-1.406l2.289-1.857c.431-.349 1.06-.282 1.406.146.348.429.282 1.059-.146 1.406l-2.289 1.857c-.186.15-.409.224-.629.224z"/></g></g><g id="LWPOLYLINE_12_"><g><path d="m12.038 58.43c-2.89 0-4.787-1.122-5.372-3.194-.921-3.264 1.188-6.934 3.371-10.094 5.206-7.534 12.071-13.658 18.101-18.655.426-.355 1.056-.294 1.407.132.353.425.294 1.056-.132 1.407-5.924 4.91-12.663 10.919-17.731 18.253-1.161 1.681-3.88 5.616-3.09 8.414.439 1.56 2.372 1.807 3.913 1.726 5.425-.259 10.858-3.162 15.652-5.725l.23-.123c.487-.26 1.094-.076 1.354.41.261.487.076 1.094-.41 1.354l-.231.123c-4.98 2.661-10.625 5.678-16.499 5.958-.192.009-.379.014-.563.014z"/></g></g><g id="ARC_15_"><g><path d="m31.242 31.405c-.162 0-.326-.039-.479-.123-1.454-.795-2.531-2.169-2.955-3.771-.142-.534.177-1.081.711-1.223.532-.14 1.082.177 1.223.711.284 1.073 1.006 1.995 1.98 2.528.484.265.663.872.397 1.356-.181.335-.523.522-.877.522z"/></g></g><g id="LWPOLYLINE_13_"><g><path d="m15.988 56.269c-1.21 0-2.404-.211-3.457-.8-1.443-.82-2.044-2.586-1.404-4.11 1.701-3.874 4.506-7.2 7.232-10.275 3.029-3.419 6.436-6.469 9.664-9.301.576-.506 1.172-.992 1.768-1.479l.813-.668c.425-.355 1.057-.294 1.408.131.353.426.294 1.056-.131 1.408l-.826.679c-.577.471-1.154.941-1.713 1.432-3.182 2.79-6.534 5.793-9.487 9.124-2.729 3.08-5.312 6.142-6.891 9.738-.242.576-.009 1.262.549 1.579 1.671.935 4.143.488 6.11-.005 3.133-.787 6.052-2.05 8.495-3.182.5-.235 1.095-.015 1.327.487.232.501.015 1.095-.487 1.327-2.526 1.171-5.555 2.479-8.849 3.307-1.255.316-2.698.608-4.121.608z"/></g></g><g id="LWPOLYLINE_14_"><g><path d="m24.917 31.5c-.433 0-.831-.282-.959-.718l-.518-1.761-1.448-1.438c-.229-.228-.334-.552-.282-.87l.179-1.092-.56-.731c-.184-.24-.249-.551-.178-.845l.689-2.824-.445-.868c-.114-.222-.141-.479-.075-.721l.751-2.739c.116-.422.493-.72.931-.734l.093-.004-.003-1.539-.396-2.198-.771-1.026-1.251.168-1.023.663c-.455.297-1.063.174-1.37-.274l-.478-.699c-.312-.457-.194-1.079.262-1.391.42-.284.98-.21 1.311.16l.399-.259c.124-.081.265-.133.41-.152l2.054-.276c.362-.048.716.101.934.391l1.266 1.685c.094.125.157.27.185.424l.453 2.52c.011.058.016.116.016.175l.004 2.596c.001.54-.427.983-.966 1.001l-.324.012-.453 1.654.438.854c.109.214.139.46.082.693l-.664 2.722.531.694c.168.219.237.497.193.769l-.165 1.01 1.265 1.257c.119.118.207.266.254.427l.59 2.007c.156.53-.147 1.086-.677 1.241-.097.023-.191.036-.284.036z"/></g></g></g></svg>