<svg id="Layer_1" height="512" viewBox="0 0 512 512" width="512" xmlns="http://www.w3.org/2000/svg" data-name="Layer 1"><path d="m80.9 498.2a8 8 0 0 0 11.09 2.238l68.61-45.575a8 8 0 0 0 2.238-11.091l-5.079-7.646 32.9-25.083 136.987 19.077a42.746 42.746 0 0 0 36.785-12.269l138.3-137.44a31.309 31.309 0 0 0 .909-43.635l-1.067-1.152a31.344 31.344 0 0 0 -41.929-3.776l-99.725 74.907a30.354 30.354 0 0 0 -7.641-2.856l-136-30.921a77.359 77.359 0 0 0 -63.078 12.38l-65.9 46.181-5.02-7.557a8 8 0 0 0 -11.089-2.238l-68.617 45.573a8 8 0 0 0 -2.238 11.09zm82.483-199.736c15.251-10.687 32.191-14.01 50.349-9.883l136 30.922a14.421 14.421 0 0 1 10.853 17.24l-.159.7a14.467 14.467 0 0 1 -17.034 10.9l-96.882-20.55a8 8 0 0 0 -3.32 15.652l96.878 20.545a30.534 30.534 0 0 0 35.956-23l.16-.7a30.305 30.305 0 0 0 -3.555-22.319l97.622-73.328a15.383 15.383 0 0 1 20.578 1.852l1.067 1.152a15.369 15.369 0 0 1 -.445 21.418l-138.3 137.435a26.731 26.731 0 0 1 -23.3 7.771l-140.281-19.534a8 8 0 0 0 -5.954 1.561l-34.724 26.472-51.741-77.9zm-89.008 41.036 70.713 106.463-55.288 36.718-70.71-106.462zm370.918-167.96a8 8 0 0 0 6.023-7.752v-41.262a8 8 0 0 0 -6.023-7.752l-26.725-6.814a105.237 105.237 0 0 0 -4.377-10.611l14.131-23.805a8 8 0 0 0 -1.222-9.744l-29.177-29.172a8 8 0 0 0 -9.741-1.222l-23.737 14.094a105.789 105.789 0 0 0 -10.571-4.4l-6.846-26.85a8 8 0 0 0 -7.752-6.023h-41.261a8 8 0 0 0 -7.752 6.023l-6.847 26.85a105.5 105.5 0 0 0 -10.443 4.333l-23.94-14.212a8 8 0 0 0 -9.741 1.223l-29.176 29.178a8 8 0 0 0 -1.221 9.74l14.223 23.963a106.05 106.05 0 0 0 -4.265 10.278l-27.113 6.914a8 8 0 0 0 -6.023 7.752v41.261a8 8 0 0 0 6.023 7.752l27.085 6.907a105.649 105.649 0 0 0 4.212 10.19l-14.325 24.133a8 8 0 0 0 1.222 9.74l29.175 29.177a8 8 0 0 0 9.742 1.222l24.035-14.268a105.442 105.442 0 0 0 10.192 4.256l6.927 27.166a8 8 0 0 0 7.752 6.023h41.262a8 8 0 0 0 7.752-6.023l6.875-26.964a105.722 105.722 0 0 0 10.354-4.257l24 14.249a8 8 0 0 0 9.741-1.222l29.176-29.177a8 8 0 0 0 1.222-9.74l-14.134-23.809a105.678 105.678 0 0 0 4.384-10.485zm-47.293 21.724 13.21 22.252-20.388 20.384-22.417-13.3a8 8 0 0 0 -7.824-.193 89.426 89.426 0 0 1 -15.913 6.542 8 8 0 0 0 -5.439 5.681l-6.426 25.2h-28.83l-6.47-25.375a8 8 0 0 0 -5.393-5.667 89.434 89.434 0 0 1 -15.756-6.58 8 8 0 0 0 -7.857.176l-22.469 13.336-20.385-20.386 13.386-22.551a8 8 0 0 0 .189-7.832 89.476 89.476 0 0 1 -6.517-15.766 8 8 0 0 0 -5.675-5.417l-25.309-6.454v-28.829l25.334-6.46a8.006 8.006 0 0 0 5.674-5.412 89.441 89.441 0 0 1 6.573-15.841 8 8 0 0 0 -.183-7.843l-13.29-22.389 20.386-20.385 22.368 13.279a8 8 0 0 0 7.85.179 89.4 89.4 0 0 1 15.987-6.632 8 8 0 0 0 5.42-5.676l6.394-25.076h28.831l6.393 25.076a8 8 0 0 0 5.42 5.676 89.473 89.473 0 0 1 16.1 6.692 8 8 0 0 0 7.859-.174l22.167-13.162 20.387 20.385-13.2 22.23a8 8 0 0 0 -.182 7.842 89.452 89.452 0 0 1 6.656 16.141 8 8 0 0 0 5.683 5.441l24.964 6.366v28.83l-25.108 6.405a8 8 0 0 0 -5.67 5.4 89.371 89.371 0 0 1 -6.7 16.016 8 8 0 0 0 .17 7.871zm-79.483-105.349a55.114 55.114 0 1 0 55.113 55.114 55.176 55.176 0 0 0 -55.113-55.114zm0 94.227a39.114 39.114 0 1 1 39.113-39.113 39.157 39.157 0 0 1 -39.113 39.113z"/></svg>