<svg id="Layer_1" enable-background="new 0 0 512 512" height="512" viewBox="0 0 512 512" width="512" xmlns="http://www.w3.org/2000/svg"><path d="m281.519 258.599c7.803-13.335 15.174-25.932 15.174-50.325 0-51.885-42.212-94.097-94.097-94.097s-94.097 42.211-94.097 94.097c0 24.394 7.371 36.989 15.173 50.325 8.55 14.612 17.39 29.724 19.515 65.384v13.724c0 9.304 5.811 17.271 13.991 20.478v7.504c0 9.439 5.979 17.506 14.348 20.618v7.365c0 12.125 9.865 21.991 21.99 21.991h18.157c12.125 0 21.991-9.865 21.991-21.991v-7.364c8.369-3.112 14.348-11.179 14.348-20.619v-7.504c8.18-3.207 13.991-11.174 13.991-20.477v-13.724c2.127-35.661 10.967-50.773 19.516-65.385zm-55.495 113.08h-46.854c-3.304 0-5.991-2.687-5.991-5.99v-5.991h58.834v5.991c0 3.303-2.687 5.99-5.989 5.99zm13.99-27.981h-74.836c-3.303 0-5.99-2.687-5.99-5.99v-5.993h86.816v5.993c0 3.303-2.687 5.99-5.99 5.99zm-60.285-122.784h-12.008c-6.621 0-12.007-5.386-12.007-12.007s5.386-12.007 12.007-12.007 12.008 5.386 12.008 12.007zm29.735 94.8h-13.735v-78.8h13.735zm-84.965-107.44c0-43.062 35.034-78.097 78.097-78.097s78.097 35.034 78.097 78.097c0 20.057-5.729 29.848-12.983 42.245-8.06 13.775-17.962 30.699-21.127 65.196h-21.118v-78.8h12.007c15.443 0 28.007-12.564 28.007-28.007s-12.564-28.007-28.007-28.007-28.007 12.564-28.007 28.007v12.007h-13.735v-12.007c0-15.443-12.564-28.007-28.008-28.007s-28.007 12.564-28.007 28.007 12.564 28.007 28.007 28.007h12.008v78.8h-21.119c-3.165-34.498-13.067-51.421-21.127-65.196-7.255-12.397-12.985-22.189-12.985-42.245zm100.965 12.64v-12.007c0-6.621 5.386-12.007 12.007-12.007s12.007 5.386 12.007 12.007-5.386 12.007-12.007 12.007zm-13.79 178.749h-18.157c-3.303 0-5.99-2.688-5.99-5.991v-5.993h30.138v5.993c0 3.303-2.687 5.991-5.991 5.991zm-17.078-306.59v-20.28c0-4.418 3.582-8 8-8s8 3.582 8 8v20.28c0 4.418-3.582 8-8 8s-8-3.581-8-8zm-74.005 3.837c-2.209-3.827-.898-8.719 2.928-10.928 3.826-2.207 8.719-.898 10.928 2.928l10.14 17.563c2.209 3.827.898 8.719-2.928 10.928-1.26.727-2.635 1.073-3.993 1.073-2.765 0-5.454-1.435-6.936-4.001zm-23.54 65.099c-1.482 2.566-4.171 4.001-6.936 4.001-1.357 0-2.733-.346-3.993-1.073l-17.563-10.14c-3.826-2.209-5.137-7.102-2.928-10.928 2.209-3.827 7.102-5.138 10.928-2.928l17.563 10.14c3.827 2.21 5.138 7.102 2.929 10.928zm163.553-55.536 10.14-17.563c2.209-3.827 7.102-5.138 10.928-2.928 3.826 2.209 5.137 7.102 2.928 10.928l-10.14 17.563c-1.482 2.566-4.171 4.001-6.936 4.001-1.357 0-2.733-.346-3.993-1.073-3.825-2.209-5.136-7.102-2.927-10.928zm47.537 55.537c-2.209-3.826-.898-8.719 2.928-10.928l17.563-10.14c3.826-2.207 8.719-.898 10.928 2.928s.898 8.719-2.928 10.928l-17.563 10.14c-1.26.727-2.635 1.073-3.993 1.073-2.764 0-5.453-1.435-6.935-4.001zm189.38 169.173c.92-1.794 1.945-3.792 3.083-6.043 6.276-12.416 3.677-27.155-6.467-36.676-1.839-1.726-3.485-3.253-4.964-4.625-5.869-5.444-8.814-8.177-10.318-10.781s-2.397-6.522-4.178-14.327c-.448-1.966-.948-4.155-1.523-6.61-3.173-13.546-14.639-23.167-28.53-23.939-2.518-.14-4.761-.251-6.775-.352-7.995-.398-12.008-.598-14.834-1.626-2.826-1.029-6.029-3.455-12.41-8.289-1.607-1.218-3.397-2.574-5.417-4.085-2.501-1.872-5.202-3.3-8.002-4.332v-112.191c0-3.2-1.907-6.093-4.849-7.353l-186.59-79.966c-2.013-.862-4.29-.862-6.303 0l-186.588 79.966c-2.941 1.26-4.849 4.153-4.849 7.353v150.875c0 55.648 19.042 106.578 55.067 147.282 34.719 39.229 83.781 66.052 138.148 75.53.455.08.915.119 1.374.119s.919-.04 1.374-.119c32.26-5.624 58.863-14.978 83.087-29.468l-10.818 23.237c-1.258 2.702-.91 5.878.903 8.244 1.813 2.365 4.789 3.529 7.726 3.013l32.23-5.631 16.438 28.288c1.436 2.471 4.076 3.98 6.916 3.98.121 0 .243-.003.364-.008 2.977-.135 5.632-1.914 6.89-4.615l29.388-63.122c4.474-1.338 7.21-2.009 9.473-2.009 3.007 0 6.847 1.185 14.496 3.545.79.244 1.628.502 2.495.768l21.031 48.83c1.179 2.737 3.782 4.592 6.753 4.813.199.015.398.022.596.022 2.752 0 5.33-1.419 6.796-3.782l17.251-27.8 32.052 6.564c2.92.597 5.93-.476 7.81-2.788 1.881-2.312 2.321-5.477 1.143-8.214l-23.887-55.461c.518-.22 1.046-.446 1.591-.679 12.789-5.477 20.273-18.438 18.622-32.253-.299-2.504-.579-4.732-.83-6.733-.997-7.943-1.497-11.93-.974-14.892.522-2.962 2.356-6.537 6.009-13.66zm-294.922 123.807c-105.223-18.966-178.592-103.819-178.592-206.807v-145.601l178.589-76.537 178.589 76.538v105.484c-4.672.833-9.208 2.742-13.24 5.76-2.019 1.511-3.809 2.867-5.417 4.085-6.381 4.834-9.583 7.26-12.41 8.289-2.826 1.028-6.839 1.228-14.834 1.626-2.014.1-4.257.212-6.775.352-13.891.773-25.356 10.394-28.529 23.939-.575 2.456-1.075 4.646-1.523 6.611-1.78 7.805-2.674 11.722-4.178 14.326s-4.45 5.337-10.318 10.781c-1.479 1.372-3.125 2.899-4.965 4.625-10.144 9.521-12.742 24.26-6.466 36.676 1.138 2.25 2.162 4.249 3.082 6.042 3.653 7.124 5.487 10.699 6.009 13.662.522 2.962.022 6.949-.974 14.892-.251 2.001-.53 4.229-.83 6.733-1.652 13.814 5.832 26.776 18.621 32.253 2.318.993 4.388 1.865 6.247 2.648.307.129.598.252.892.376l-5.235 11.244c-28.395 22.234-57.811 34.874-97.743 42.003zm137.071 22.397-11.54-19.857c-1.684-2.897-4.993-4.438-8.294-3.861l-22.624 3.953 22.403-48.119c1.836 2.075 3.904 5.274 7.28 10.502 1.094 1.694 2.312 3.581 3.692 5.691 6.019 9.206 16.073 14.31 26.6 14.065zm114.064-34.881c-3.281-.671-6.636.772-8.402 3.619l-12.11 19.515-11.329-26.304c8.267-1.422 15.782-6.19 20.654-13.64 1.38-2.11 2.599-3.997 3.692-5.691 4.343-6.725 6.522-10.101 8.826-12.034.88-.738 1.966-1.422 3.38-2.159l17.789 41.301zm32.59-124.584c-1.122 2.219-2.132 4.19-3.04 5.959-8.747 17.057-9.059 18.826-6.673 37.845.248 1.974.523 4.171.818 6.641.813 6.806-2.732 12.948-9.034 15.646-2.287.979-4.328 1.84-6.161 2.612-17.664 7.444-19.039 8.598-29.438 24.701-1.079 1.671-2.28 3.531-3.642 5.613-3.751 5.736-10.414 8.162-16.977 6.179-2.381-.72-4.498-1.373-6.398-1.959-9.158-2.826-14.186-4.238-19.214-4.238s-10.056 1.413-19.213 4.238c-1.901.586-4.017 1.24-6.398 1.959-6.559 1.981-13.225-.442-16.977-6.179-1.361-2.082-2.563-3.942-3.642-5.613-10.398-16.103-11.774-17.257-29.438-24.701-1.833-.772-3.875-1.632-6.161-2.612-6.301-2.698-9.847-8.84-9.033-15.646.295-2.47.571-4.667.818-6.641 2.385-19.02 2.073-20.788-6.673-37.845-.908-1.77-1.918-3.74-3.04-5.959-3.092-6.118-1.861-13.102 3.137-17.792 1.814-1.703 3.438-3.209 4.896-4.562 14.052-13.036 14.95-14.591 19.213-33.278.442-1.939.935-4.099 1.502-6.521 1.563-6.674 6.996-11.233 13.84-11.613 2.483-.138 4.695-.249 6.682-.347 19.145-.953 20.833-1.567 36.111-13.143 1.585-1.201 3.351-2.539 5.342-4.029 5.488-4.107 12.58-4.107 18.066 0 1.992 1.491 3.757 2.829 5.342 4.03 15.278 11.575 16.966 12.189 36.111 13.143 1.986.099 4.198.209 6.682.347 6.844.38 12.277 4.939 13.84 11.613.567 2.421 1.06 4.581 1.502 6.52 4.264 18.688 5.161 20.244 19.214 33.28 1.458 1.353 3.082 2.859 4.896 4.562 5 4.689 6.232 11.673 3.14 17.79zm-99.757-66.823c-40.021 0-72.581 32.559-72.581 72.58s32.56 72.58 72.581 72.58 72.58-32.56 72.58-72.58-32.559-72.58-72.58-72.58zm0 129.16c-31.199 0-56.581-25.382-56.581-56.58s25.382-56.58 56.581-56.58c31.198 0 56.58 25.381 56.58 56.58s-25.382 56.58-56.58 56.58z"/></svg>