<svg id="Layer_1" viewBox="0 0 512 512" xmlns="http://www.w3.org/2000/svg" data-name="Layer 1"><path d="m501.99 431.89h-13.194c2.835-4.258 4.492-9.365 4.492-14.854v-234.34c0-14.817-12.055-26.873-26.872-26.873h-51.855c-.86-6.751-1.864-12.35-3.027-16.195-8.063-26.669-21.57-27.482-29.005-25.53-8.698 1.976-17.883 11.249-17.736 31.419.015 2.145.033 4.399.053 6.744.01 1.16.02 2.352.029 3.562h-23.426c-1.184-14.925-5.801-30.282-13.539-44.24-7.83-14.125-18.154-25.755-30.062-34.143 1.727-1.056 2.883-2.953 2.883-5.125 0-3.319-2.69-6.01-6.01-6.01h-8.105c8.612-14.706 16.371-37.934 10.302-48.562-2.433-4.204-6.793-6.714-11.664-6.714h-58.508c-4.854 0-9.203 2.51-11.646 6.732-6.07 10.578 1.688 33.823 10.297 48.543h-8.118c-3.319 0-6.01 2.69-6.01 6.01 0 2.174 1.158 4.072 2.886 5.127-11.904 8.39-22.227 20.021-30.056 34.148-7.735 13.958-12.352 29.311-13.536 44.233h-23.431c.007-.991.015-1.972.022-2.928.021-2.577.04-5.046.053-7.374.146-20.174-9.036-29.447-17.734-31.424-7.429-1.952-20.94-1.149-29.009 25.537-1.139 3.782-2.126 9.388-2.974 16.188h-51.906c-14.817 0-26.872 12.056-26.872 26.873v234.34c0 5.488 1.657 10.595 4.492 14.854h-13.194c-3.319 0-6.01 2.69-6.01 6.01v28.517c0 19.054 15.488 34.555 34.526 34.555h434.947c19.038 0 34.526-15.501 34.526-34.555v-28.517c0-3.319-2.69-6.01-6.01-6.01zm-234.936-30.756c-2.782 0-5.045-2.251-5.045-5.018v-17.234c0-2.782 2.263-5.045 5.045-5.045h83.906c2.782 0 5.045 2.25 5.045 5.017v17.263c0 2.767-2.263 5.018-5.045 5.018h-83.906zm-106.016 0c-2.782 0-5.045-2.251-5.045-5.018v-17.263c0-2.767 2.263-5.017 5.045-5.017h83.935c2.767 0 5.017 2.263 5.017 5.045v17.234c0 2.767-2.25 5.018-5.017 5.018h-83.935zm-67.254-128.891c2.8 18.328 18.353 36.418 42.537 59.663 2.127 2.047 4.248 3.959 6.298 5.809 8.749 7.891 15.41 13.932 16.914 24.179-8.706.764-15.56 8.073-15.56 16.96v17.263c0 1.746.267 3.43.757 5.018h-83.243v-202.535h32.78c-1.481 32.953-1.433 67.464-.482 73.645zm56.701-42.788c-1.522-9.194-2.386-19.903-2.863-30.856h30.547c4.347 8.622 10.4 16.086 18.004 22.076 14.739 11.612 34.642 17.497 59.12 17.496h.68c24.815.109 44.985-5.778 59.861-17.5 7.602-5.99 13.655-13.452 18.001-22.071h30.552c-.479 10.956-1.346 21.659-2.873 30.856-1.92-.76-4.022-1.21-6.287-1.339-25.635-1.475-69.39 41.61-77.711 52.901-12.831 17.486-12.719 49.221-11.853 80.87-3.669.298-7.011 1.756-9.66 4.014-2.65-2.263-5.996-3.722-9.67-4.016.868-31.669.979-63.423-11.855-80.872-8.289-11.279-52.005-54.312-77.69-52.899-2.271.128-4.379.578-6.303 1.34zm201.999 132.439c1.489-10.251 8.15-16.292 16.899-24.185 2.049-1.848 4.168-3.759 6.291-5.802 24.206-23.266 39.771-41.357 42.569-59.648.957-6.344 1.064-40.751-.415-73.661h32.683v202.535h-83.245c.491-1.587.757-3.272.757-5.018v-17.263c0-8.88-6.843-16.186-15.54-16.959zm32.75-236.086c.096-.021.191-.045.287-.07 7.071-1.91 11.792 8.39 14.508 17.368 1.249 4.132 2.308 10.855 3.192 19.113.01.162.027.322.05.48.917 8.678 1.645 19.004 2.203 29.791 0 .033-.005.065-.005.099 0 .244.019.483.047.719 1.7 33.403 1.79 70.877.845 77.147-2.53 16.539-21.466 35.92-39.017 52.789-1.987 1.912-4.032 3.757-6.011 5.541-9.535 8.601-19.358 17.461-20.97 33.032h-62.679c-.782-28.576-.975-59.386 9.514-73.679 9.016-12.234 47.955-48.045 66.568-48.045.263 0 .523.008.777.021 2.668.152 4.344 1.152 5.604 3.345.016.028.038.052.055.08.034.056.062.115.098.171 1.337 2.083 3.523 10.94-24.447 37.466-2.408 2.283-2.51 6.087-.226 8.495 1.182 1.246 2.77 1.875 4.361 1.875 1.484 0 2.972-.547 4.134-1.649 15.189-14.403 34.071-34.902 27.604-50.164 5.671-24.17 5.363-60.688 5.136-87.575-.02-2.337-.038-4.583-.052-6.726-.09-12.271 4.166-18.698 8.423-19.625zm-20.465 60.771h-26.212c.851-2.907 1.547-5.903 2.063-8.991.532-3.184.854-6.444 1.018-9.745h23.298c.007 6.011-.031 12.339-.167 18.736zm-139.256-162.816c.298-.514.644-.714 1.233-.714h58.508c.595 0 .972.213 1.244.684 3.36 5.885-5.778 32.305-14.286 42.572h-32.42c-8.504-10.288-17.632-36.7-14.28-42.542zm12.708 54.562h35.561c31.711 11.256 55.389 47.774 55.988 83.254-.003.085-.013.168-.013.254 0 .111.011.219.017.329.044 4.519-.267 9.02-1.006 13.446-3.16 18.909-16.732 50.545-72.147 50.545h-1.292c-55.345-.003-68.925-31.629-72.084-50.532-.723-4.325-1.035-8.721-1.009-13.137.023-.214.037-.43.037-.65 0-.192-.011-.382-.029-.57.735-35.381 24.366-71.715 55.978-82.939zm-67.849 89.519c.163 3.306.485 6.57 1.019 9.759.515 3.083 1.211 6.075 2.06 8.978h-26.208c-.136-6.406-.174-12.733-.168-18.736h23.297zm-58.401-24.736c2.716-8.979 7.433-19.281 14.504-17.369.097.026.193.05.291.071 4.257.927 8.513 7.354 8.423 19.637-.012 2.33-.031 4.79-.052 7.356-.022 2.903-.045 5.924-.062 9.024v.007.006c-.136 25.412.185 56.523 5.198 77.897-6.447 15.241 12.422 35.747 27.601 50.159 1.162 1.104 2.65 1.652 4.137 1.652 1.59 0 3.178-.628 4.358-1.872 2.286-2.406 2.188-6.21-.22-8.495-27.96-26.549-25.783-35.391-24.45-37.469.036-.056.064-.114.098-.17.017-.028.038-.052.055-.081 1.262-2.194 2.94-3.194 5.613-3.345 18.319-1.067 58.218 35.615 67.334 48.019 10.492 14.266 10.299 45.092 9.517 73.684h-62.658c-1.629-15.569-11.451-24.428-20.984-33.027-1.98-1.786-4.027-3.633-6.019-5.548-17.533-16.852-36.451-36.221-38.987-52.819-.958-6.228-.889-43.642.807-77.044.034-.259.058-.521.058-.79 0-.057-.007-.111-.008-.167.547-10.572 1.26-20.7 2.155-29.272.095-.424.149-.863.149-1.316 0-.02-.003-.039-.003-.058.875-8.032 1.918-14.586 3.147-18.668zm-81.24 273.928v-234.34c0-8.19 6.663-14.854 14.853-14.854h50.647c-.52 5.861-.968 12.187-1.348 18.736h-39.405c-3.319 0-6.01 2.69-6.01 6.01v214.555c0 3.319 2.69 6.01 6.01 6.01h401.045c3.319 0 6.01-2.69 6.01-6.01v-214.555c0-3.319-2.69-6.01-6.01-6.01h-39.311c-.383-6.544-.837-12.87-1.367-18.736h50.571c8.189 0 14.853 6.663 14.853 14.854v234.34c0 8.19-6.663 14.854-14.853 14.854h-420.832c-8.189 0-14.853-6.663-14.853-14.854zm167.471 26.873h115.596v8.248c0 4.549-3.7 8.249-8.248 8.249h-99.071c-4.563 0-8.276-3.7-8.276-8.249v-8.248zm297.778 22.507c0 12.426-10.097 22.535-22.507 22.535h-434.947c-12.41 0-22.507-10.109-22.507-22.535v-22.507h170.163v8.248c0 11.176 9.104 20.269 20.296 20.269h99.071c11.176 0 20.268-9.093 20.268-20.269v-8.248h170.163zm-290.504-283.881c9.41 18.366 28.517 30.973 50.524 30.973 8.126 0 15.852-1.73 22.847-4.822.146-.055.284-.126.426-.193 14.849-6.709 26.313-19.62 31.07-35.421.163-.398.275-.809.349-1.228 1.332-4.816 2.058-9.881 2.058-15.115 0-31.292-25.458-56.75-56.75-56.75s-56.75 25.458-56.75 56.75c0 8.921 2.073 17.365 5.754 24.885.125.318.29.623.472.92zm12.599-2.115 13.746-13.745 33.769 33.767c-3.091.678-6.297 1.046-9.589 1.046-15.975 0-30.012-8.428-37.926-21.068zm59.812 15.323-22.374-22.374 21.689-21.689 20.694 20.717c-3.722 9.933-10.875 18.195-20.009 23.345zm-21.886-83.744c24.665 0 44.73 20.065 44.73 44.73 0 .49-.021.975-.037 1.462l-19.238-19.259c-1.127-1.128-2.656-1.762-4.25-1.763h-.002c-1.594 0-3.122.634-4.249 1.761l-25.94 25.941-10.945-10.945c-2.346-2.348-6.152-2.348-8.498 0l-14.688 14.688c-1.044-3.788-1.613-7.771-1.613-11.886 0-24.665 20.065-44.73 44.73-44.73zm-14.797 32.882c0-3.319 2.69-6.01 6.01-6.01h.538c3.319 0 6.01 2.69 6.01 6.01s-2.69 6.01-6.01 6.01h-.538c-3.319 0-6.01-2.69-6.01-6.01z"/></svg>