<?xml version="1.0" encoding="iso-8859-1"?>
<!-- Generator: Adobe Illustrator 19.0.0, SVG Export Plug-In . SVG Version: 6.00 Build 0)  -->
<svg version="1.1" id="Layer_1" xmlns="http://www.w3.org/2000/svg" xmlns:xlink="http://www.w3.org/1999/xlink" x="0px" y="0px"
	 viewBox="0 0 512 512" style="enable-background:new 0 0 512 512;" xml:space="preserve">
<g>
	<g>
		<path d="M260.599,219.484l-11.245,22.489l-19.918,19.918v26.822l26.193,13.097H118.568v32.337H58.094L10.779,393.29v27.089H0
			v48.505h29.642v-16.168H16.168v-16.168h102.4h150.905v16.168h-24.253v16.168h40.421V301.811h-27.638l19.401-16.168h23.635v-26.846
			l23.915-30.437L260.599,219.484z M65.864,350.316h20.368v37.726H35.684L65.864,350.316z M118.568,420.379H26.947v-16.168H102.4
			v-53.895h16.168V420.379z M269.474,317.979v102.4H134.737v-86.232v-16.168H269.474z M284.871,253.204v16.27h-13.321
			l-16.665,13.888l-9.28-4.64v-10.133l17.038-17.038l7.233-14.466l24.956,3.442L284.871,253.204z"/>
	</g>
</g>
<g>
	<g>
		<path d="M410.406,185.355l-14.699,6.735c9.219,20.118,13.893,41.62,13.893,63.911c0,9.83-0.932,19.485-2.713,28.873h-13.455
			v-15.391l-18.478-9.239v-27.047l-27.717-18.479v-12.611h-16.168v21.265l27.717,18.479v28.387l18.478,9.238v21.566h25.644
			c-14.327,46.974-50.655,85.142-99.187,100.99l5.019,15.371C378.738,394.542,425.768,329.68,425.768,256
			C425.768,231.368,420.6,207.6,410.406,185.355z"/>
	</g>
</g>
<g>
	<g>
		<path d="M247.916,157.603v34.877h-24.63l-21.565,43.133v12.302h-33.115l-10.62-21.24l-38.745,19.373l-14.647-15.911
			c4.825-28.324,17.515-54.854,36.924-76.535l-12.047-10.785C101.588,173.966,86.232,214.16,86.232,256
			c0,9.959,2.334,27.998,2.433,28.761l0.916,7.04h35.514l10.103,4.042l6.006-15.013l-12.995-5.198h-24.346
			c-0.656-5.948-1.463-14.322-1.463-19.633c0-1.436,0.027-2.868,0.067-4.3l13.12,14.252l35.167-17.584l7.858,15.716h59.277v-24.654
			l15.39-30.781h30.805v-51.046H247.916z"/>
	</g>
</g>
<g>
	<g>
		<path d="M482.358,64.674h-50.905L356.001,0h-48.408l32.337,64.674h-48.758l-26.947-21.558h-49.759l32.001,51.2l-31.999,51.2
			h49.759l26.947-21.558h48.757l-32.337,64.674h48.408l75.453-64.674h50.904c16.345,0,29.642-13.298,29.642-29.642
			S498.703,64.674,482.358,64.674z M333.754,16.168h16.265l56.589,48.505h-48.602L333.754,16.168z M243.639,59.284h14.915
			l16.101,12.88l-16.21,10.807L243.639,59.284z M258.554,129.347h-14.915l14.805-23.687l16.21,10.807L258.554,129.347z
			 M350.02,172.463h-16.265l24.253-48.505h48.602L350.02,172.463z M482.358,107.789h-53.895h-2.99h-59.381H353.01h-62.226
			l-20.211-13.474l20.211-13.474h62.226h13.08h59.381h2.991h53.895c7.43,0,13.474,6.044,13.474,13.474
			S489.788,107.789,482.358,107.789z"/>
	</g>
</g>
<g>
	<g>
		<rect x="105.095" y="452.716" width="53.895" height="16.168"/>
	</g>
</g>
<g>
	<g>
		<path d="M202.105,441.937c-19.316,0-35.032,15.715-35.032,35.032c0,19.317,15.716,35.032,35.032,35.032
			s35.032-15.715,35.032-35.032C237.137,457.651,221.421,441.937,202.105,441.937z M202.105,495.832
			c-10.401,0-18.863-8.463-18.863-18.863c0-10.401,8.463-18.863,18.863-18.863c10.401,0,18.863,8.463,18.863,18.863
			C220.968,487.369,212.506,495.832,202.105,495.832z"/>
	</g>
</g>
<g>
	<g>
		<path d="M67.368,441.937c-19.316,0-35.032,15.715-35.032,35.032c0,19.317,15.716,35.032,35.032,35.032
			c19.316,0,35.032-15.715,35.032-35.032C102.4,457.651,86.684,441.937,67.368,441.937z M67.368,495.832
			c-10.401,0-18.863-8.463-18.863-18.863c0-10.401,8.463-18.863,18.863-18.863c10.401,0,18.863,8.463,18.863,18.863
			C86.232,487.369,77.769,495.832,67.368,495.832z"/>
	</g>
</g>
<g>
	<g>
		<rect x="396.126" y="495.832" width="16.168" height="16.168"/>
	</g>
</g>
<g>
	<g>
		<rect x="428.463" y="495.832" width="16.168" height="16.168"/>
	</g>
</g>
<g>
	<g>
		<rect x="460.8" y="495.832" width="16.168" height="16.168"/>
	</g>
</g>
<g>
	<g>
		<rect x="363.789" y="495.832" width="16.168" height="16.168"/>
	</g>
</g>
<g>
	<g>
		<rect x="299.116" y="495.832" width="16.168" height="16.168"/>
	</g>
</g>
<g>
	<g>
		<rect x="331.453" y="495.832" width="16.168" height="16.168"/>
	</g>
</g>
<g>
	<g>
		<rect x="299.116" y="463.495" width="16.168" height="16.168"/>
	</g>
</g>
<g>
	<g>
		<rect x="396.126" y="463.495" width="16.168" height="16.168"/>
	</g>
</g>
<g>
	<g>
		<rect x="331.453" y="463.495" width="16.168" height="16.168"/>
	</g>
</g>
<g>
	<g>
		<rect x="363.789" y="463.495" width="16.168" height="16.168"/>
	</g>
</g>
<g>
	<g>
		<rect x="331.453" y="431.158" width="16.168" height="16.168"/>
	</g>
</g>
<g>
	<g>
		<rect x="299.116" y="431.158" width="16.168" height="16.168"/>
	</g>
</g>
<g>
	<g>
		<rect x="363.789" y="431.158" width="16.168" height="16.168"/>
	</g>
</g>
<g>
	<g>
		<rect x="142.821" y="118.568" width="16.168" height="16.168"/>
	</g>
</g>
<g>
	<g>
		<rect x="175.158" y="118.568" width="16.168" height="16.168"/>
	</g>
</g>
<g>
	<g>
		<rect x="110.484" y="118.568" width="16.168" height="16.168"/>
	</g>
</g>
<g>
	<g>
		<rect x="110.484" y="86.232" width="16.168" height="16.168"/>
	</g>
</g>
<g>
	<g>
		<rect x="175.158" y="86.232" width="16.168" height="16.168"/>
	</g>
</g>
<g>
	<g>
		<rect x="207.495" y="86.232" width="16.168" height="16.168"/>
	</g>
</g>
<g>
	<g>
		<rect x="45.811" y="86.232" width="16.168" height="16.168"/>
	</g>
</g>
<g>
	<g>
		<rect x="142.821" y="86.232" width="16.168" height="16.168"/>
	</g>
</g>
<g>
	<g>
		<rect x="78.147" y="86.232" width="16.168" height="16.168"/>
	</g>
</g>
<g>
	<g>
		<rect x="110.484" y="53.895" width="16.168" height="16.168"/>
	</g>
</g>
<g>
	<g>
		<rect x="175.158" y="53.895" width="16.168" height="16.168"/>
	</g>
</g>
<g>
	<g>
		<rect x="142.821" y="53.895" width="16.168" height="16.168"/>
	</g>
</g>
<g>
</g>
<g>
</g>
<g>
</g>
<g>
</g>
<g>
</g>
<g>
</g>
<g>
</g>
<g>
</g>
<g>
</g>
<g>
</g>
<g>
</g>
<g>
</g>
<g>
</g>
<g>
</g>
<g>
</g>
</svg>
